<?xml version="1.0" encoding="iso-8859-1"?>
<!-- Generator: Adobe Illustrator 19.0.0, SVG Export Plug-In . SVG Version: 6.00 Build 0)  -->
<svg version="1.1" id="Capa_1" xmlns="http://www.w3.org/2000/svg" xmlns:xlink="http://www.w3.org/1999/xlink" x="0px" y="0px"
	 viewBox="0 0 512 512" style="enable-background:new 0 0 512 512;" xml:space="preserve" fill="#47167d">
<g>
	<g>
		<path d="M417.221,390.177H296.5c-5.522,0-10,4.477-10,10s4.478,10,10,10h110.72V492H104.779v-81.823H208.5c5.522,0,10-4.477,10-10
			s-4.478-10-10-10H94.779c-5.522,0-10,4.477-10,10V502c0,5.523,4.478,10,10,10h322.442c5.522,0,10-4.477,10-10V400.177
			C427.221,394.654,422.743,390.177,417.221,390.177z"/>
	</g>
</g>
<g>
	<g>
		<path d="M261.49,393.11c-1.86-1.87-4.44-2.93-7.07-2.93s-5.21,1.06-7.07,2.93c-1.87,1.86-2.93,4.43-2.93,7.07
			c0,2.63,1.06,5.21,2.93,7.07c1.86,1.86,4.43,2.93,7.07,2.93c2.63,0,5.21-1.07,7.07-2.93c1.86-1.86,2.93-4.44,2.93-7.07
			S263.349,394.97,261.49,393.11z"/>
	</g>
</g>
<g>
	<g>
		<path d="M421.239,198.173C419.691,194.437,416.045,192,412,192h-76V10c0-5.523-4.478-10-10-10H186c-5.522,0-10,4.477-10,10v182
			h-76c-4.045,0-7.691,2.437-9.239,6.173c-1.547,3.737-0.691,8.038,2.168,10.898l156,156C250.882,367.024,253.44,368,256,368
			s5.118-0.976,7.071-2.929l156-156C421.931,206.211,422.786,201.91,421.239,198.173z M256,343.858L124.143,212H186
			c5.522,0,10-4.477,10-10V20h16v97.341c0,5.523,4.478,10,10,10c5.522,0,10-4.477,10-10V20h84v182c0,5.523,4.478,10,10,10h61.857
			L256,343.858z"/>
	</g>
</g>
<g>
	<g>
		<path d="M222,139.87c-5.522,0-10,4.477-10,10V150c0,5.523,4.478,10,10,10c5.522,0,10-4.477,10-10v-0.13
			C232,144.347,227.522,139.87,222,139.87z"/>
	</g>
</g>
<g>
</g>
<g>
</g>
<g>
</g>
<g>
</g>
<g>
</g>
<g>
</g>
<g>
</g>
<g>
</g>
<g>
</g>
<g>
</g>
<g>
</g>
<g>
</g>
<g>
</g>
<g>
</g>
<g>
</g>
</svg>
